<svg width="64" height="64" viewBox="0 0 64 64" fill="none" xmlns="http://www.w3.org/2000/svg">
<path d="M31.9999 5.33325C17.2959 5.33325 5.33325 17.2959 5.33325 31.9999C5.33325 46.7039 17.2959 58.6666 31.9999 58.6666C46.7039 58.6666 58.6666 46.7039 58.6666 31.9999C58.6666 17.2959 46.7039 5.33325 31.9999 5.33325ZM31.9999 53.3333C20.2373 53.3333 10.6666 43.7626 10.6666 31.9999C10.6666 20.2373 20.2373 10.6666 31.9999 10.6666C43.7626 10.6666 53.3333 20.2373 53.3333 31.9999C53.3333 43.7626 43.7626 53.3333 31.9999 53.3333Z" fill="#0084FF"/>
<path d="M26.6638 36.2318L20.5332 30.1118L16.7678 33.8878L26.6692 43.7678L44.5518 25.8852L40.7812 22.1145L26.6638 36.2318Z" fill="#0084FF"/>
</svg>
