<svg width="100" height="100" viewBox="0 0 100 100" fill="#0084FF" xmlns="http://www.w3.org/2000/svg">
<path d="M79.2903 38.1077C79.0815 22.8615 66.6141 10.522 51.319 10.522C44.5153 10.522 37.9605 12.997 32.8624 17.4912C28.3124 21.5019 25.2 26.8617 23.9673 32.7462C23.8773 32.7452 23.788 32.7445 23.699 32.7445C10.6316 32.7445 0 43.3759 0 56.4434C0 69.511 10.6316 80.1424 23.6992 80.1424H40.2505C41.428 80.1424 42.3831 79.1877 42.3831 78.0098C42.3831 76.8319 41.428 75.8772 40.2505 75.8772H23.6992C12.9832 75.8772 4.26523 67.1592 4.26523 56.4434C4.26523 45.7276 12.9832 37.0097 23.6992 37.0097C24.2701 37.0097 24.8736 37.0403 25.5445 37.1034C26.6816 37.2099 27.7025 36.4011 27.8574 35.2683C28.6253 29.6394 31.4044 24.4622 35.6829 20.6906C40.0015 16.8835 45.5544 14.7871 51.3188 14.7871C64.3921 14.7871 75.0276 25.4228 75.0276 38.4958C75.0276 38.9665 74.9926 39.4517 74.9557 39.9653L74.9399 40.1837C74.8956 40.811 75.1303 41.4261 75.5819 41.8642C76.0329 42.3022 76.6538 42.5187 77.2805 42.456C77.8477 42.3987 78.42 42.37 78.9813 42.37C88.219 42.37 95.7348 49.8856 95.7348 59.1235C95.7348 68.3612 88.2192 75.8768 78.9813 75.8768H61.5768C60.3993 75.8768 59.4442 76.8315 59.4442 78.0094C59.4442 79.1873 60.3993 80.142 61.5768 80.142H78.9813C90.5709 80.142 100 70.7133 100 59.1235C99.9998 47.6378 90.7381 38.2735 79.2903 38.1077Z" fill="#0084FF"/>
<path d="M61.0171 62.51L53.2597 55.5804C51.9224 54.3851 49.9049 54.3853 48.567 55.5802L40.8096 62.5102C39.9311 63.2948 39.8553 64.643 40.6398 65.5216C41.4244 66.3997 42.7725 66.476 43.6512 65.6913L48.7808 61.1089V87.3453C48.7808 88.5233 49.7355 89.478 50.9135 89.478C52.0912 89.478 53.0461 88.5233 53.0461 87.3453V61.1085L58.1759 65.6911C58.5826 66.0546 59.0902 66.2333 59.5959 66.2333C60.1822 66.2333 60.7658 65.9932 61.1873 65.5214C61.9714 64.6428 61.8955 63.2948 61.0171 62.51Z" fill="#0084FF"/>
</svg>
